<?xml version="1.0" encoding="UTF-8"?><svg xmlns="http://www.w3.org/2000/svg" xmlns:xlink="http://www.w3.org/1999/xlink" fill-opacity="1" color-rendering="auto" color-interpolation="auto" text-rendering="auto" stroke="black" stroke-linecap="square" width="126" stroke-miterlimit="10" shape-rendering="auto" stroke-opacity="1" fill="black" stroke-dasharray="none" font-weight="normal" stroke-width="1" height="126" font-family="'Dialog'" font-style="normal" stroke-linejoin="miter" font-size="12px" stroke-dashoffset="0" image-rendering="auto">
  <!--Generated by ySVG 2.5-->
  <defs id="genericDefs"/>
  <g>
    <defs id="defs1">
      <clipPath clipPathUnits="userSpaceOnUse" id="clipPath1">
        <path d="M0 0 L126 0 L126 126 L0 126 L0 0 Z"/>
      </clipPath>
      <clipPath clipPathUnits="userSpaceOnUse" id="clipPath2">
        <path d="M-15 -15 L111 -15 L111 111 L-15 111 L-15 -15 Z"/>
      </clipPath>
    </defs>
    <g fill="white" text-rendering="geometricPrecision" shape-rendering="geometricPrecision" transform="translate(15,15)" stroke="white">
      <rect x="-15" width="126" height="126" y="-15" clip-path="url(#clipPath2)" stroke="none"/>
    </g>
    <g text-rendering="geometricPrecision" stroke-miterlimit="1.45" shape-rendering="geometricPrecision" transform="matrix(1,0,0,1,15,15)" stroke-linecap="butt">
      <circle fill="none" r="15" clip-path="url(#clipPath2)" cx="80.2067" cy="15"/>
      <text x="71.2125" xml:space="preserve" y="19.1543" clip-path="url(#clipPath2)" font-family="sans-serif" stroke="none">M1</text>
      <circle fill="none" r="15" clip-path="url(#clipPath2)" cx="80.2067" cy="80.2067"/>
      <text x="71.2125" xml:space="preserve" y="84.361" clip-path="url(#clipPath2)" font-family="sans-serif" stroke="none">M4</text>
      <circle fill="none" r="15" clip-path="url(#clipPath2)" cx="15" cy="80.2067"/>
      <text x="6.0059" xml:space="preserve" y="84.361" clip-path="url(#clipPath2)" font-family="sans-serif" stroke="none">M3</text>
      <circle fill="none" r="15" clip-path="url(#clipPath2)" cx="15" cy="15"/>
      <text x="6.0059" xml:space="preserve" y="19.1543" clip-path="url(#clipPath2)" font-family="sans-serif" stroke="none">M2</text>
      <path fill="none" d="M69.6001 25.6066 L25.6066 69.6001" clip-path="url(#clipPath2)"/>
      <path fill="none" d="M30 80.2067 L65.2067 80.2067" clip-path="url(#clipPath2)"/>
      <path fill="none" d="M65.2067 15 L30 15" clip-path="url(#clipPath2)"/>
      <path fill="none" d="M15 30 L15 65.2067" clip-path="url(#clipPath2)"/>
    </g>
  </g>
</svg>
